<svg xmlns="http://www.w3.org/2000/svg" viewBox="0 0 64 64" fill="none" class="mx-auto h-16 w-16 mb-6"><rect width="64" height="64" rx="10" fill="#2A3B4D"></rect> <circle cx="23" cy="23" r="11" fill="#F0EAD6"></circle> <line x1="23" y1="23" x2="23" y2="15" stroke="#2A3B4D" stroke-width="2.5" stroke-linecap="round"></line> <line x1="23" y1="23" x2="17" y2="20" stroke="#2A3B4D" stroke-width="2.5" stroke-linecap="round"></line> <rect x="38" y="9" width="5.5" height="5.5" fill="#63C1A8"></rect><rect x="38" y="16" width="5.5" height="5.5" fill="#63C1A8"></rect><rect x="38" y="23" width="5.5" height="5.5" fill="#77C8A5"></rect><rect x="38" y="30" width="5.5" height="5.5" fill="#8BD0A2"></rect><rect x="38" y="37" width="5.5" height="5.5" fill="#8BD0A2"></rect><rect x="38" y="44" width="5.5" height="5.5" fill="#A0D79F"></rect><rect x="38" y="51" width="5.5" height="5.5" fill="#F3A66B"></rect><rect x="45" y="9" width="5.5" height="5.5" fill="#77C8A5"></rect><rect x="45" y="16" width="5.5" height="5.5" fill="#77C8A5"></rect><rect x="45" y="23" width="5.5" height="5.5" fill="#8BD0A2"></rect><rect x="45" y="30" width="5.5" height="5.5" fill="#A0D79F"></rect><rect x="45" y="37" width="5.5" height="5.5" fill="#A0D79F"></rect><rect x="45" y="44.825" width="5.5" height="4.675" fill="#F3A66B"></rect><rect x="45" y="52.65" width="5.5" height="3.8499999999999996" fill="#EC8C54"></rect><rect x="52" y="9" width="5.5" height="5.5" fill="#8BD0A2"></rect><rect x="52" y="16" width="5.5" height="5.5" fill="#8BD0A2"></rect><rect x="52" y="23" width="5.5" height="5.5" fill="#A0D79F"></rect><rect x="52" y="30.55" width="5.5" height="4.95" fill="#F3A66B"></rect><rect x="52" y="38.375" width="5.5" height="4.125" fill="#F3A66B"></rect><rect x="52" y="46.2" width="5.5" height="3.3" fill="#EC8C54"></rect><rect x="52" y="54.3" width="5.5" height="2.2" fill="#E46A5E"></rect><rect x="9" y="37" width="5.5" height="5.5" fill="#63C1A8"></rect><rect x="16" y="37" width="5.5" height="5.5" fill="#63C1A8"></rect><rect x="23" y="37" width="5.5" height="5.5" fill="#77C8A5"></rect><rect x="30" y="37" width="5.5" height="5.5" fill="#8BD0A2"></rect><rect x="9" y="44" width="5.5" height="5.5" fill="#77C8A5"></rect><rect x="16" y="44" width="5.5" height="5.5" fill="#77C8A5"></rect><rect x="23" y="44.55" width="5.5" height="4.95" fill="#8BD0A2"></rect><rect x="30" y="45.65" width="5.5" height="3.8499999999999996" fill="#A0D79F"></rect><rect x="9" y="51" width="5.5" height="5.5" fill="#8BD0A2"></rect><rect x="16" y="51.825" width="5.5" height="4.675" fill="#8BD0A2"></rect><rect x="23" y="52.65" width="5.5" height="3.8499999999999996" fill="#A0D79F"></rect><rect x="30" y="53.75" width="5.5" height="2.75" fill="#F3A66B"></rect></svg>